# AST/ASF file generated using VICON BodyLanguage
# -----------------------------------------------
:version 1.10
:name VICON
:units
  mass 1.0
  length 0.45
  angle deg
:documentation
   .ast/.asf automatically generated from VICON data using
   VICON BodyBuilder and BodyLanguage model FoxedUp or BRILLIANT.MOD
:root
   order TX TY TZ RX RY RZ
   axis XYZ
   position 0 0 0  
   orientation 0 0 0 
:bonedata
  begin
     id 1 
     name lhipjoint
     direction 0.645897 -0.709066 0.282916 
     length 2.50918 
     axis 0 0 0  XYZ
  end
  begin
     id 2 
     name lfemur
     direction 0.34202 -0.939693 0  
     length 6.85725  
     axis 0 0 20  XYZ
    dof rx ry rz
    limits (-160.0 20.0)
           (-70.0 70.0)
           (-60.0 70.0)
  end
  begin
     id 3 
     name ltibia
     direction 0.34202 -0.939693 0   
     length 8.01778   
     axis 0 0 20   XYZ
    dof rx
    limits (-10.0 170.0)
  end
  begin
     id 4 
     name lfoot
     direction 0.0796011 -0.218702 0.972539   
     length 2.13962   
     axis -90 7.62852e-016 20   XYZ
    dof rx rz
    limits (-45.0 90.0)
           (-70.0 20.0)
  end
  begin
     id 5 
     name ltoes
     direction 1.53548e-011 -4.21881e-011 1   
     length 1.07476   
     axis -90 7.62852e-016 20   XYZ
    dof rx
    limits (-90.0 20.0)
  end
  begin
     id 6 
     name rhipjoint
     direction -0.63101 -0.720537 0.287493   
     length 2.46923  
     axis 0 0 0  XYZ 
  end
  begin
     id 7 
     name rfemur
     direction -0.34202 -0.939693 0   
     length 6.81957   
     axis 0 0 -20   XYZ
    dof rx ry rz
    limits (-160.0 20.0)
           (-70.0 70.0)
           (-70.0 60.0)
  end
  begin
     id 8 
     name rtibia
     direction -0.34202 -0.939693 0   
     length 8.15152   
     axis 0 0 -20   XYZ
    dof rx
    limits (-10.0 170.0)
 end
 begin
     id 9 
     name rfoot
     direction -0.105819 -0.290734 0.950934   
     length 2.14588  
     axis -90 -7.62852e-016 -20   XYZ
    dof rx rz
    limits (-45.0 90.0)
           (-20.0 70.0)
  end
  begin
     id 10 
     name rtoes
     direction -1.53512e-011 -4.22005e-011 1   
     length 1.0703   
     axis -90 -7.62852e-016 -20   XYZ
    dof rx
    limits (-90.0 20.0)
  end
  begin
     id 11 
     name lowerback
     direction 0.0114933 0.999236 0.0373542   
     length 1.91711   
     axis 0 0 0   XYZ
    dof rx ry rz
    limits (-20.0 45.0)
           (-30.0 30.0)
           (-30.0 30.0)
  end
  begin
     id 12 
     name upperback
     direction 0.00911529 0.998099 0.0609554   
     length 1.90888   
     axis 0 0 0   XYZ
    dof rx ry rz
    limits (-20.0 45.0)
           (-30.0 30.0)
           (-30.0 30.0)
  end
  begin
     id 13 
     name thorax
     direction 0.00357322 0.99911 0.0420379   
     length 1.90942   
     axis 0 0 0   XYZ
    dof rx ry rz
    limits (-20.0 45.0)
           (-30.0 30.0)
           (-30.0 30.0)
  end
  begin
     id 14 
     name lowerneck
     direction -0.0589311 0.997882 0.0275448   
     length 1.83956   
     axis 0 0 0   XYZ
    dof rx ry rz
    limits (-20.0 45.0)
           (-30.0 30.0)
           (-30.0 30.0)
  end
  begin
     id 15 
     name upperneck
     direction 0.0362633 0.960055 -0.277453   
     length 1.82031   
     axis 0 0 0   XYZ
    dof rx ry rz
    limits (-20.0 45.0)
           (-30.0 30.0)
           (-30.0 30.0)
  end
  begin
     id 16
     name head
     direction 0.0166719 0.995328 -0.0951042  
     length 1.86084  
     axis 0 0 0   XYZ
    dof rx ry rz
    limits (-20.0 45.0)
           (-30.0 30.0)
           (-30.0 30.0)
  end
  begin
     id 17 
     name lclavicle
     direction 0.90319 0.426238 0.0506919  
     length 3.17828  
     axis 0 0 0   XYZ
    dof ry rz
    limits (-20.0 10.0)
           (0.0 20.0)
  end
  begin
     id 18 
     name lhumerus
     direction 1 -4.48953e-011 6.78797e-028   
     length 5.43592   
     axis 180 -30 -90   XYZ
    dof rx ry rz
    limits (-60.0 90.0)
           (-90.0 90.0)
           (-90.0 90.0)
  end
  begin
     id 19
     name lradius
     direction 1 -4.48969e-011 7.02702e-027   
     length 3.2546   
     axis 180 -30 -90   XYZ
    dof rx
    limits (-10.0 170.0)
  end
  begin
     id 20
     name lwrist
     direction 1 -4.48975e-011 1.29807e-026   
     length 1.6273   
     axis -8.50346e-015 90 90   XYZ
    dof ry
    limits (-180.0 0.0)
 end
  begin
     id 21 
     name lhand
     direction 1 -4.48917e-011 2.59615e-026   
     length 0.498244   
     axis -1.65656e-014 90 90   XYZ
    dof rx rz
    limits (-90.0 90.0)
           (-45.0 45.0)
  end
  begin
     id 22 
     name lfingers
     direction 1 -4.48885e-011 5.1923e-026   
     length 0.401697   
     axis -3.31313e-014 90 90   XYZ
    dof rx
    limits (0.0 90.0)
  end
  begin
     id 23
     name lthumb
     direction 0.707107 -6.34946e-011 0.707107   
     length 0.576759   
     axis -90 45 2.85299e-015   XYZ
    dof rx rz
    limits (-45.0 45.0)
           (-45.0 45.0)
  end
  begin
     id 24 
     name rclavicle
     direction -0.908603 0.391432 0.145676   
     length 3.15477  
     axis 0 0 0   XYZ 
    dof ry rz
    limits (-10.0 20.0)
           (-20.0 0.0)
  end
  begin
     id 25 
     name rhumerus
     direction -1 -4.4898e-011 1.02852e-027  
     length 5.3383   
     axis 180 30 90   XYZ
    dof rx ry rz
    limits (-90.0 60.0)
           (-90.0 90.0)
           (-90.0 90.0)
  end
  begin
     id 26 
     name rradius
     direction -1 -4.48968e-011 7.05567e-027   
     length 3.23148   
     axis 180 30 90   XYZ
    dof rx
    limits (-10.0 170.0)
  end
  begin
     id 27 
     name rwrist
     direction -1 -4.48927e-011 1.29807e-026   
     length 1.61574   
     axis -8.50346e-015 -90 -90   XYZ
    dof ry
    limits (-180.0 0.0)
  end
  begin
     id 28
     name rhand
     direction -1 -4.48905e-011 2.59615e-026   
     length 0.463641   
     axis -1.65656e-014 -90 -90   XYZ
    dof rx rz
    limits (-90.0 90.0)
           (-45.0 45.0)
  end
  begin
     id 29
     name rfingers
     direction -1 -4.49167e-011 5.1923e-026   
     length 0.373799   
     axis -3.31313e-014 -90 -90   XYZ
    dof rx
    limits (0.0 90.0)
  end
  begin
     id 30
     name rthumb
     direction -0.707107 -6.34954e-011 0.707107   
     length 0.536703   
     axis -90 -45 -2.85299e-015   XYZ
    dof rx rz
    limits (-45.0 45.0)
           (-45.0 45.0)
  end
:hierarchy
  begin
    root lhipjoint rhipjoint lowerback
    lhipjoint lfemur
    lfemur ltibia
    ltibia lfoot
    lfoot ltoes
    rhipjoint rfemur
    rfemur rtibia
    rtibia rfoot
    rfoot rtoes
    lowerback upperback
    upperback thorax
    thorax lowerneck lclavicle rclavicle
    lowerneck upperneck
    upperneck head
    lclavicle lhumerus
    lhumerus lradius
    lradius lwrist
    lwrist lhand lthumb
    lhand lfingers
    rclavicle rhumerus
    rhumerus rradius
    rradius rwrist
    rwrist rhand rthumb
    rhand rfingers
  end

#!OML:ASF F:\VICON\USERDATA\INSTALL\rory3\rory3.ASF
:FULLY-SPECIFIED
:DEGREES
69
root 3.83417 17.465 3.64025 21.0417 -8.3576 -2.09001
lowerback -10.7371 1.33459 6.9156
upperback -12.5334 1.39 1.08428
thorax -7.21753 0.155083 -2.64025
lowerneck -4.87487 17.9647 12.5467
upperneck 13.4193 22.1512 6.69463
head 5.48462 11.8145 1.75685
rclavicle -1.0635e-014 5.96354e-015
rhumerus -7.94268 -25.97 24.1528
rradius 119.051
rwrist -57.1056
rhand -5.18705 -46.0812
rfingers 7.12502
rthumb 20.6137 -75.0066
lclavicle -1.0635e-014 5.96354e-015
lhumerus 32.0235 28.195 -18.0124
lradius 29.1525
lwrist 25.7466
lhand -25.7952 -22.6875
lfingers 7.12502
lthumb 0.743508 7.29099
rfemur 4.30562 5.08014 1.3001
rtibia -2.22639e-014
rfoot -16.8461 -27.7497
rtoes 37.8464
lfemur -28.4233 -1.96424 -24.2614
ltibia 25.5054
lfoot -15.8608 6.5457
ltoes 8.96435
70
root 3.83108 17.4694 3.61698 20.9982 -8.46327 -2.05381
lowerback -10.4451 1.33285 6.71746
upperback -12.5504 1.4253 1.08473
thorax -7.39427 0.183395 -2.53285
lowerneck -4.90672 17.9679 12.6056
upperneck 13.6017 22.1235 6.78959
head 5.54432 11.8166 1.79088
rclavicle -1.74931e-014 -2.82274e-014
rhumerus -8.03083 -25.9723 24.248
rradius 118.976
rwrist -57.17
rhand -5.79553 -46.2142
rfingers 7.12502
rthumb 20.0289 -75.2019
lclavicle -1.74931e-014 -2.82274e-014
lhumerus 32.3205 28.6503 -17.5168
lradius 29.027
lwrist 25.3006
lhand -26.1386 -22.8152
lfingers 7.12502
lthumb 0.411883 7.16417
rfemur 4.20985 5.17356 1.23246
rtibia -9.54166e-015
rfoot -18.4533 -27.1978
rtoes 40.3119
lfemur -28.4447 -1.99346 -24.2595
ltibia 25.4006
lfoot -15.6598 6.61612
ltoes 8.96573
71
root 3.83583 17.4641 3.63125 20.9925 -8.41487 -2.14219
lowerback -10.7533 1.35594 6.8485
upperback -12.437 1.41715 1.09922
thorax -7.09641 0.1813 -2.58559
lowerneck -4.82197 17.9486 12.6458
upperneck 13.6247 22.1117 6.74205
head 5.54813 11.8101 1.76635
rclavicle -1.18277e-014 -7.95139e-015
rhumerus -8.0767 -25.9641 24.2531
rradius 118.954
rwrist -57.3011
rhand -6.09774 -46.3244
rfingers 7.12502
rthumb 19.7384 -75.3422
lclavicle -1.18277e-014 -7.95139e-015
lhumerus 32.872 29.5064 -16.6008
lradius 28.6955
lwrist 23.9331
lhand -26.1521 -23.3427
lfingers 7.12502
lthumb 0.398846 6.63663
rfemur 4.31759 5.16694 1.30732
rtibia 6.36111e-015
rfoot -18.5822 -27.5025
rtoes 40.5583
lfemur -28.3395 -1.84914 -24.2362
ltibia 25.3615
lfoot -15.6977 6.44479
ltoes 9.09847
72
root 3.83948 17.4604 3.63256 20.8704 -8.48345 -1.95816
lowerback -10.7403 1.31882 6.61738
upperback -12.3618 1.37734 1.0776
thorax -7.02023 0.183002 -2.48234
lowerneck -4.65566 17.9276 12.6618
upperneck 13.4655 22.1368 6.57333
head 5.49151 11.8056 1.69342
rclavicle -7.85199e-015 -1.39149e-014
rhumerus -8.05013 -25.9783 24.1648
rradius 118.934
rwrist -57.319
rhand -6.01541 -46.3872
rfingers 7.12502
rthumb 19.8175 -75.3969
lclavicle -7.85199e-015 -1.39149e-014
lhumerus 33.1602 29.9447 -16.0786
lradius 28.471
lwrist 23.1028
lhand -26.2902 -23.5908
lfingers 7.12502
lthumb 0.265436 6.38877
rfemur 4.45038 5.19774 1.06803
rtibia 3.49861e-014
rfoot -18.3894 -27.7527
rtoes 40.3977
lfemur -28.2156 -1.83752 -24.4794
ltibia 25.3653
lfoot -15.7551 6.48858
ltoes 9.08276
73
root 3.8435 17.459 3.6288 20.7684 -8.5192 -1.88889
lowerback -10.6473 1.29356 6.51917
upperback -12.3123 1.35481 1.071
thorax -7.0171 0.180517 -2.43732
lowerneck -4.56939 17.9293 12.6558
upperneck 13.3667 22.164 6.52134
head 5.45157 11.811 1.66674
rclavicle 2.98177e-015 -1.27222e-014
rhumerus -8.03102 -26.0249 24.0751
rradius 118.87
rwrist -57.2168
rhand -5.63195 -46.4588
rfingers 7.12502
rthumb 20.1861 -75.43
lclavicle 2.98177e-015 -1.27222e-014
lhumerus 32.9733 29.6891 -16.3561
lradius 28.5443
lwrist 23.737
lhand -26.1711 -23.39
lfingers 7.12502
lthumb 0.380536 6.58937
rfemur 4.54733 5.2368 0.970992
rtibia 3.81667e-014
rfoot -19.3673 -27.0415
rtoes 41.598
lfemur -28.1522 -1.94889 -24.5468
ltibia 25.4218
lfoot -15.82 6.69077
ltoes 8.76023
74
root 3.84667 17.4589 3.62728 20.7727 -8.51996 -1.99764
lowerback -10.6706 1.30009 6.60691
upperback -12.2818 1.35583 1.08617
thorax -6.97053 0.17682 -2.46952
lowerneck -4.64666 17.9316 12.7232
upperneck 13.4755 22.142 6.52783
head 5.50563 11.8078 1.6758
rclavicle -1.51076e-014 2.78299e-015
rhumerus -8.02918 -26.0511 23.9783
rradius 118.811
rwrist -57.1723
rhand -5.44614 -46.4957
rfingers 7.12502
rthumb 20.3647 -75.4479
lclavicle -1.51076e-014 2.78299e-015
lhumerus 32.4764 29.052 -17.1637
lradius 28.8203
lwrist 24.9271
lhand -26.0021 -23.2421
lfingers 7.12502
lthumb 0.543761 6.73698
rfemur 4.53209 5.27735 1.07124
rtibia -3.18055e-014
rfoot -19.2942 -26.9687
rtoes 41.4315
lfemur -28.1475 -1.97164 -24.4289
ltibia 25.4311
lfoot -15.8988 6.76507
ltoes 8.55443
75
root 3.84858 17.4577 3.62645 20.7674 -8.53048 -2.02637
lowerback -10.6821 1.30912 6.60435
upperback -12.2584 1.36516 1.06575
thorax -6.93641 0.182337 -2.48914
lowerneck -4.89177 17.9309 12.7101
upperneck 13.6653 22.0821 6.62801
head 5.59206 11.7925 1.73664
rclavicle -6.85807e-015 -4.77083e-015
rhumerus -8.1172 -26.0221 23.995
rradius 118.77
rwrist -57.1049
rhand -5.57698 -46.4969
rfingers 7.12502
rthumb 20.239 -75.4625
lclavicle -6.85807e-015 -4.77083e-015
lhumerus 32.038 28.5136 -17.8643
lradius 29.0477
lwrist 25.5298
lhand -26.0391 -23.3284
lfingers 7.12502
lthumb 0.508016 6.65073
rfemur 4.52657 5.29949 1.08405
rtibia -9.54166e-015
rfoot -18.3397 -27.4831
rtoes 40.3491
lfemur -28.1414 -1.93525 -24.4167
ltibia 25.4313
lfoot -15.9289 6.69603
ltoes 8.97357
76
root 3.84934 17.4576 3.61878 20.7185 -8.54938 -2.01477
lowerback -10.5484 1.30632 6.56342
upperback -12.2346 1.37327 1.03703
thorax -6.98206 0.187572 -2.49858
lowerneck -5.09962 17.959 12.4225
upperneck 13.6653 22.0752 6.95393
head 5.55516 11.7985 1.87155
rclavicle 3.16068e-014 1.70955e-014
rhumerus -8.18301 -26.0484 23.93
rradius 118.723
rwrist -57.0311
rhand -5.17727 -46.4413
rfingers 7.12502
rthumb 20.6231 -75.3657
lclavicle 3.16068e-014 1.70955e-014
lhumerus 31.9941 28.6057 -17.8693
lradius 29.0381
lwrist 25.2123
lhand -25.8997 -23.7769
lfingers 7.12502
lthumb 0.642622 6.20185
rfemur 4.5292 5.32778 1.06317
rtibia -9.54166e-015
rfoot -17.5621 -27.9938
rtoes 39.5165
lfemur -28.1207 -1.95088 -24.4232
ltibia 25.4045
lfoot -15.8722 6.6978
ltoes 9.47112
77
root 3.84893 17.459 3.60592 20.6585 -8.591 -1.94183
lowerback -10.3267 1.27532 6.43722
upperback -12.237 1.35691 1.01756
thorax -7.1082 0.18472 -2.45333
lowerneck -5.04171 17.9767 12.1997
upperneck 13.5449 22.1104 7.16609
head 5.45801 11.8148 1.93798
rclavicle -1.36167e-014 5.56597e-015
rhumerus -8.11677 -26.1271 23.7126
rradius 118.682
rwrist -57.0716
rhand -4.69349 -46.4617
rfingers 7.12502
rthumb 21.0879 -75.335
lclavicle -1.36167e-014 5.56597e-015
lhumerus 32.3138 29.1632 -17.3001
lradius 28.8434
lwrist 24.3616
lhand -25.386 -24.3326
lfingers 7.12502
lthumb 1.13877 5.64411
rfemur 4.51091 5.35656 0.977377
rtibia 9.54166e-015
rfoot -17.0355 -28.324
rtoes 38.8265
lfemur -28.0916 -1.91103 -24.5027
ltibia 25.3422
lfoot -15.875 6.68077
ltoes 9.60169
78
root 3.84899 17.4602 3.59987 20.5888 -8.63727 -1.83333
lowerback -10.2 1.25177 6.27607
upperback -12.23 1.34272 0.987531
thorax -7.17054 0.18746 -2.39823
lowerneck -5.07122 17.943 12.1785
upperneck 13.67 22.0543 7.19124
head 5.49712 11.7936 1.95363
rclavicle 2.61402e-014 -5.56597e-015
rhumerus -8.11547 -26.1239 23.6075
rradius 118.685
rwrist -57.0894
rhand -4.73274 -46.5793
rfingers 7.12502
rthumb 21.0502 -75.4568
lclavicle 2.61402e-014 -5.56597e-015
lhumerus 32.6428 29.6103 -16.8255
lradius 28.6102
lwrist 23.525
lhand -24.2624 -24.8215
lfingers 7.12502
lthumb 2.22392 5.14669
rfemur 4.5175 5.37944 0.853889
rtibia 1.90833e-014
rfoot -14.7041 -29.4651
rtoes 35.673
lfemur -28.0275 -1.91877 -24.6192
ltibia 25.2898
lfoot -15.873 6.67096
ltoes 9.61988
79
root 3.85073 17.461 3.59742 20.5739 -8.61464 -1.82984
lowerback -10.18 1.25027 6.25269
upperback -12.2423 1.34344 0.970219
thorax -7.19497 0.187971 -2.40391
lowerneck -5.1256 17.8794 12.2115
upperneck 13.8693 21.9466 7.20272
head 5.57133 11.752 1.96389
rclavicle -2.14687e-014 1.74931e-014
rhumerus -8.22347 -25.9241 23.5904
rradius 118.775
rwrist -56.9969
rhand -5.06146 -46.6744
rfingers 7.12502
rthumb 20.7344 -75.5867
lclavicle -2.14687e-014 1.74931e-014
lhumerus 32.8539 29.7723 -16.5602
lradius 28.4521
lwrist 22.9846
lhand -23.9326 -24.8192
lfingers 7.12502
lthumb 2.54246 5.14538
rfemur 4.51705 5.36298 0.860158
rtibia -1.90833e-014
rfoot -12.6022 -30.3212
rtoes 32.7405
lfemur -28.01 -1.91647 -24.624
ltibia 25.2553
lfoot -15.7873 6.64583
ltoes 9.49883
80
root 3.85148 17.4613 3.592 20.6066 -8.52149 -1.91335
lowerback -10.1279 1.23048 6.29544
upperback -12.3176 1.32316 0.984172
thorax -7.31152 0.170059 -2.41453
lowerneck -4.75985 17.808 12.4169
upperneck 13.7639 21.9172 7.00216
head 5.52456 11.7283 1.84392
rclavicle 1.55052e-014 5.1684e-015
rhumerus -8.27417 -25.6438 23.5028
rradius 118.892
rwrist -56.8985
rhand -5.08644 -46.5591
rfingers 7.12502
rthumb 20.7104 -75.4741
lclavicle 1.55052e-014 5.1684e-015
lhumerus 32.9139 29.6699 -16.4926
lradius 28.4367
lwrist 22.9412
lhand -24.6185 -24.1471
lfingers 7.12502
lthumb 1.88003 5.82439
rfemur 4.51792 5.30101 0.98615
rtibia 3.18055e-015
rfoot -15.4377 -29.1506
rtoes 36.7964
lfemur -28.0589 -1.80244 -24.5452
ltibia 25.2394
lfoot -15.7306 6.50371
ltoes 9.33622
81
root 3.85122 17.4621 3.58691 20.6438 -8.48006 -1.93107
lowerback -10.0768 1.20943 6.23584
upperback -12.4312 1.30633 0.976786
thorax -7.4699 0.159015 -2.39072
lowerneck -4.38457 17.7383 12.697
upperneck 13.7651 21.8838 6.78238
head 5.52132 11.7093 1.71819
rclavicle 7.45443e-015 1.23246e-014
rhumerus -8.28314 -25.4238 23.5109
rradius 118.934
rwrist -57.0691
rhand -5.09806 -46.3518
rfingers 7.12502
rthumb 20.6992 -75.2679
lclavicle 7.45443e-015 1.23246e-014
lhumerus 32.6538 29.0988 -16.9466
lradius 28.6331
lwrist 23.6789
lhand -24.7838 -23.6443
lfingers 7.12502
lthumb 1.72039 6.32854
rfemur 4.12493 5.25789 1.03892
rtibia 0.667951
rfoot -18.2879 -27.37
rtoes 40.5878
lfemur -28.1423 -1.76949 -24.5202
ltibia 25.2536
lfoot -15.7074 6.41571
ltoes 9.35558
